# xmcd
#
# Track frame offsets:
#	150
#	14027
#	24910
#	45370
#	60865
#	76122
#	92700
#	105210
#	117932
#	130962
#	145737
#	161297
#	173815
#
# Disc length: 2562 seconds
#
# Revision: 4
# Processed by: cddbd v1.5.2PL0 Copyright (c) Steve Scherf et al.
# Submitted via: audiograbber 1.83.01
#
DISCID=8e0a000d
DTITLE=Various Artist - Australia's Favourite Line Dances Volume 2
DYEAR=1995
DGENRE=Country
TTITLE0=Doug Stone - Addicted To A Dollar
TTITLE1=Dolly Parton - Silver Threads And Golden Needles
TTITLE2=Joe Diffie - John Deere Green
TTITLE3=Bobbie Cryner - Daddy Laid The Blues On Me
TTITLE4=James House - A Real Good Way To Wind Up Lonesome
TTITLE5=Ricky Van Shelton - Linda Lu
TTITLE6=Rick Trevino - Hanky Tonk Crowd
TTITLE7=Patty Loveless - I Try To Think About Elvis
TTITLE8=Sawyer Brown - The Race Is On
TTITLE9=Troy Cassar-Daley - Dream Out Loud
TTITLE10=Charlie Daniels - Boogie Woogie Fiddle Country Blues
TTITLE11=Joe Diffie - If The Devil Danced (In Empty Pockets)
TTITLE12=Dallas County Line - Honk If You Love To Honky Tonk
EXTD=Australia Favourite Line Dances Volume 2
EXTT0=
EXTT1=
EXTT2=
EXTT3=
EXTT4=
EXTT5=
EXTT6=
EXTT7=
EXTT8=
EXTT9=
EXTT10=
EXTT11=
EXTT12=
PLAYORDER=
